<mxfile host="app.diagrams.net" modified="2023-08-22T07:54:39.273Z" agent="Mozilla/5.0 (Windows NT 10.0; Win64; x64) AppleWebKit/537.36 (KHTML, like Gecko) Chrome/116.0.0.0 Safari/537.36" etag="ojiqhh_Gp1M-KHp6DSkB" version="21.6.8" type="device">
  <diagram name="Page-1" id="SpnayTxxRpMcUlmPbXYU">
    <mxGraphModel dx="612" dy="1035" grid="1" gridSize="10" guides="1" tooltips="1" connect="1" arrows="1" fold="1" page="1" pageScale="1" pageWidth="850" pageHeight="1100" math="0" shadow="0">
      <root>
        <mxCell id="0" />
        <mxCell id="1" parent="0" />
        <mxCell id="gv7uBPnO3ANpOGrqllnX-3" value="" style="rounded=1;whiteSpace=wrap;html=1;arcSize=6;fillColor=#fad7ac;strokeColor=#b46504;" parent="1" vertex="1">
          <mxGeometry x="640" y="250" width="330" height="310" as="geometry" />
        </mxCell>
        <mxCell id="gv7uBPnO3ANpOGrqllnX-65" value="" style="edgeStyle=orthogonalEdgeStyle;rounded=0;orthogonalLoop=1;jettySize=auto;html=1;entryX=0.5;entryY=0;entryDx=0;entryDy=0;" parent="1" target="gv7uBPnO3ANpOGrqllnX-5" edge="1">
          <mxGeometry relative="1" as="geometry">
            <mxPoint x="1359.9999999999998" y="120" as="sourcePoint" />
          </mxGeometry>
        </mxCell>
        <mxCell id="gv7uBPnO3ANpOGrqllnX-64" value="" style="edgeStyle=orthogonalEdgeStyle;rounded=0;orthogonalLoop=1;jettySize=auto;html=1;entryX=0.5;entryY=0;entryDx=0;entryDy=0;" parent="1" source="gv7uBPnO3ANpOGrqllnX-5" target="gv7uBPnO3ANpOGrqllnX-48" edge="1">
          <mxGeometry relative="1" as="geometry" />
        </mxCell>
        <mxCell id="gv7uBPnO3ANpOGrqllnX-5" value="" style="rounded=1;whiteSpace=wrap;html=1;arcSize=6;fillColor=#d5e8d4;gradientColor=#97d077;strokeColor=#82b366;" parent="1" vertex="1">
          <mxGeometry x="1260" y="140" width="200" height="370" as="geometry" />
        </mxCell>
        <mxCell id="gv7uBPnO3ANpOGrqllnX-12" value="&lt;div style=&quot;background-color: rgb(255, 255, 255); font-family: Consolas, &amp;quot;Courier New&amp;quot;, monospace; font-size: 14px; line-height: 19px;&quot;&gt;ar_game_archery_handle(&lt;span style=&quot;color: #267f99;&quot;&gt;ak_msg_t&lt;/span&gt;&lt;span style=&quot;color: #0000ff;&quot;&gt;*&lt;/span&gt; &lt;span style=&quot;color: #001080;&quot;&gt;msg&lt;/span&gt;)&lt;/div&gt;" style="rounded=1;whiteSpace=wrap;html=1;align=left;" parent="1" vertex="1">
          <mxGeometry x="650" y="310" width="310" height="35" as="geometry" />
        </mxCell>
        <mxCell id="gv7uBPnO3ANpOGrqllnX-13" value="&lt;div style=&quot;background-color: rgb(255, 255, 255); font-family: Consolas, &amp;quot;Courier New&amp;quot;, monospace; font-size: 14px; line-height: 19px;&quot;&gt;ar_game_bang_handle(&lt;span style=&quot;color: #267f99;&quot;&gt;ak_msg_t&lt;/span&gt;&lt;span style=&quot;color: #0000ff;&quot;&gt;*&lt;/span&gt; &lt;span style=&quot;color: #001080;&quot;&gt;msg&lt;/span&gt;)&lt;/div&gt;" style="rounded=1;whiteSpace=wrap;html=1;align=left;" parent="1" vertex="1">
          <mxGeometry x="650" y="410" width="310" height="35" as="geometry" />
        </mxCell>
        <mxCell id="gv7uBPnO3ANpOGrqllnX-14" value="&lt;div style=&quot;background-color: rgb(255, 255, 255); font-family: Consolas, &amp;quot;Courier New&amp;quot;, monospace; font-size: 14px; line-height: 19px;&quot;&gt;ar_game_arrow_handle(&lt;span style=&quot;color: #267f99;&quot;&gt;ak_msg_t&lt;/span&gt;&lt;span style=&quot;color: #0000ff;&quot;&gt;*&lt;/span&gt; &lt;span style=&quot;color: #001080;&quot;&gt;msg&lt;/span&gt;)&lt;/div&gt;" style="rounded=1;whiteSpace=wrap;html=1;align=left;" parent="1" vertex="1">
          <mxGeometry x="650" y="360" width="310" height="35" as="geometry" />
        </mxCell>
        <mxCell id="gv7uBPnO3ANpOGrqllnX-15" value="&lt;div style=&quot;background-color: rgb(255, 255, 255); font-family: Consolas, &amp;quot;Courier New&amp;quot;, monospace; font-size: 14px; line-height: 19px;&quot;&gt;ar_game_border_handle(&lt;span style=&quot;color: #267f99;&quot;&gt;ak_msg_t&lt;/span&gt;&lt;span style=&quot;color: #0000ff;&quot;&gt;*&lt;/span&gt; &lt;span style=&quot;color: #001080;&quot;&gt;msg&lt;/span&gt;)&lt;/div&gt;" style="rounded=1;whiteSpace=wrap;html=1;align=left;" parent="1" vertex="1">
          <mxGeometry x="650" y="460" width="310" height="35" as="geometry" />
        </mxCell>
        <mxCell id="gv7uBPnO3ANpOGrqllnX-17" value="&lt;div style=&quot;background-color: rgb(255, 255, 255); font-family: Consolas, &amp;quot;Courier New&amp;quot;, monospace; font-size: 14px; line-height: 19px;&quot;&gt;ar_game_meteoroid_handle(&lt;span style=&quot;color: #267f99;&quot;&gt;ak_msg_t&lt;/span&gt;&lt;span style=&quot;color: #0000ff;&quot;&gt;*&lt;/span&gt; &lt;span style=&quot;color: #001080;&quot;&gt;msg&lt;/span&gt;)&lt;/div&gt;" style="rounded=1;whiteSpace=wrap;html=1;align=left;" parent="1" vertex="1">
          <mxGeometry x="650" y="510" width="310" height="35" as="geometry" />
        </mxCell>
        <mxCell id="gv7uBPnO3ANpOGrqllnX-33" value="" style="edgeStyle=orthogonalEdgeStyle;rounded=0;orthogonalLoop=1;jettySize=auto;html=1;exitX=0.5;exitY=1;exitDx=0;exitDy=0;entryX=0.5;entryY=0;entryDx=0;entryDy=0;" parent="1" source="gv7uBPnO3ANpOGrqllnX-28" target="gv7uBPnO3ANpOGrqllnX-24" edge="1">
          <mxGeometry relative="1" as="geometry" />
        </mxCell>
        <mxCell id="gv7uBPnO3ANpOGrqllnX-37" value="" style="edgeStyle=orthogonalEdgeStyle;rounded=0;orthogonalLoop=1;jettySize=auto;html=1;entryX=0.5;entryY=0;entryDx=0;entryDy=0;" parent="1" source="gv7uBPnO3ANpOGrqllnX-24" target="gv7uBPnO3ANpOGrqllnX-26" edge="1">
          <mxGeometry relative="1" as="geometry" />
        </mxCell>
        <mxCell id="gv7uBPnO3ANpOGrqllnX-24" value="ar_game_archery_display" style="rounded=1;whiteSpace=wrap;html=1;" parent="1" vertex="1">
          <mxGeometry x="1270" y="260" width="180" height="35" as="geometry" />
        </mxCell>
        <mxCell id="gv7uBPnO3ANpOGrqllnX-41" value="" style="edgeStyle=orthogonalEdgeStyle;rounded=0;orthogonalLoop=1;jettySize=auto;html=1;entryX=0.5;entryY=0;entryDx=0;entryDy=0;" parent="1" source="gv7uBPnO3ANpOGrqllnX-25" target="gv7uBPnO3ANpOGrqllnX-27" edge="1">
          <mxGeometry relative="1" as="geometry" />
        </mxCell>
        <mxCell id="gv7uBPnO3ANpOGrqllnX-25" value="ar_game_bang_display" style="rounded=1;whiteSpace=wrap;html=1;" parent="1" vertex="1">
          <mxGeometry x="1270" y="360" width="180" height="35" as="geometry" />
        </mxCell>
        <mxCell id="gv7uBPnO3ANpOGrqllnX-40" value="" style="edgeStyle=orthogonalEdgeStyle;rounded=0;orthogonalLoop=1;jettySize=auto;html=1;entryX=0.5;entryY=0;entryDx=0;entryDy=0;" parent="1" target="gv7uBPnO3ANpOGrqllnX-25" edge="1">
          <mxGeometry relative="1" as="geometry">
            <mxPoint x="1359.9699999999998" y="340" as="sourcePoint" />
            <mxPoint x="1359.97" y="355" as="targetPoint" />
          </mxGeometry>
        </mxCell>
        <mxCell id="gv7uBPnO3ANpOGrqllnX-26" value="ar_game_arrow_display" style="rounded=1;whiteSpace=wrap;html=1;" parent="1" vertex="1">
          <mxGeometry x="1270" y="310" width="180" height="35" as="geometry" />
        </mxCell>
        <mxCell id="gv7uBPnO3ANpOGrqllnX-42" value="" style="edgeStyle=orthogonalEdgeStyle;rounded=0;orthogonalLoop=1;jettySize=auto;html=1;" parent="1" source="gv7uBPnO3ANpOGrqllnX-27" target="gv7uBPnO3ANpOGrqllnX-29" edge="1">
          <mxGeometry relative="1" as="geometry" />
        </mxCell>
        <mxCell id="gv7uBPnO3ANpOGrqllnX-27" value="ar_game_border_display" style="rounded=1;whiteSpace=wrap;html=1;" parent="1" vertex="1">
          <mxGeometry x="1270" y="410" width="180" height="35" as="geometry" />
        </mxCell>
        <mxCell id="gv7uBPnO3ANpOGrqllnX-28" value="&lt;div style=&quot;background-color: rgb(255, 255, 255); font-family: Consolas, &amp;quot;Courier New&amp;quot;, monospace; font-size: 14px; line-height: 19px;&quot;&gt;ar_game_screen_display&lt;/div&gt;" style="rounded=1;whiteSpace=wrap;html=1;" parent="1" vertex="1">
          <mxGeometry x="1270" y="210" width="180" height="35" as="geometry" />
        </mxCell>
        <mxCell id="gv7uBPnO3ANpOGrqllnX-29" value="ar_game_meteoroid_display" style="rounded=1;whiteSpace=wrap;html=1;" parent="1" vertex="1">
          <mxGeometry x="1270" y="460" width="180" height="35" as="geometry" />
        </mxCell>
        <mxCell id="gv7uBPnO3ANpOGrqllnX-44" value="" style="edgeStyle=orthogonalEdgeStyle;rounded=1;orthogonalLoop=1;jettySize=auto;html=1;endArrow=halfCircle;endFill=0;" parent="1" source="gv7uBPnO3ANpOGrqllnX-45" target="gv7uBPnO3ANpOGrqllnX-46" edge="1">
          <mxGeometry relative="1" as="geometry" />
        </mxCell>
        <mxCell id="gv7uBPnO3ANpOGrqllnX-47" value="" style="edgeStyle=orthogonalEdgeStyle;rounded=0;orthogonalLoop=1;jettySize=auto;html=1;" parent="1" source="gv7uBPnO3ANpOGrqllnX-45" edge="1">
          <mxGeometry relative="1" as="geometry">
            <mxPoint x="1280" y="210" as="targetPoint" />
            <Array as="points">
              <mxPoint x="1280" y="210" />
            </Array>
          </mxGeometry>
        </mxCell>
        <mxCell id="gv7uBPnO3ANpOGrqllnX-45" value="" style="ellipse;whiteSpace=wrap;html=1;rounded=1;fillColor=#fff2cc;strokeColor=#d6b656;" parent="1" vertex="1">
          <mxGeometry x="1270" y="165" width="20" height="20" as="geometry" />
        </mxCell>
        <mxCell id="gv7uBPnO3ANpOGrqllnX-46" value="&lt;div style=&quot;background-color: rgb(255, 255, 255); font-family: Consolas, &amp;quot;Courier New&amp;quot;, monospace; font-size: 14px; line-height: 19px;&quot;&gt;&lt;div style=&quot;line-height: 19px;&quot;&gt;ar_game_status&lt;/div&gt;&lt;div style=&quot;line-height: 19px;&quot;&gt;== &lt;span style=&quot;color: #0000ff;&quot;&gt;game_on&lt;/span&gt;&lt;/div&gt;&lt;/div&gt;" style="whiteSpace=wrap;html=1;rounded=1;" parent="1" vertex="1">
          <mxGeometry x="1310" y="150" width="140" height="50" as="geometry" />
        </mxCell>
        <mxCell id="gv7uBPnO3ANpOGrqllnX-48" value="" style="rounded=1;whiteSpace=wrap;html=1;arcSize=6;fillColor=#d5e8d4;gradientColor=#97d077;strokeColor=#82b366;" parent="1" vertex="1">
          <mxGeometry x="1260" y="530" width="200" height="125" as="geometry" />
        </mxCell>
        <mxCell id="gv7uBPnO3ANpOGrqllnX-58" value="&lt;div style=&quot;background-color: rgb(255, 255, 255); font-family: Consolas, &amp;quot;Courier New&amp;quot;, monospace; font-size: 14px; line-height: 19px;&quot;&gt;Screen lose (...)&lt;/div&gt;" style="rounded=1;whiteSpace=wrap;html=1;" parent="1" vertex="1">
          <mxGeometry x="1270" y="610" width="180" height="35" as="geometry" />
        </mxCell>
        <mxCell id="gv7uBPnO3ANpOGrqllnX-60" value="" style="edgeStyle=orthogonalEdgeStyle;rounded=1;orthogonalLoop=1;jettySize=auto;html=1;endArrow=halfCircle;endFill=0;" parent="1" source="gv7uBPnO3ANpOGrqllnX-62" target="gv7uBPnO3ANpOGrqllnX-63" edge="1">
          <mxGeometry relative="1" as="geometry" />
        </mxCell>
        <mxCell id="gv7uBPnO3ANpOGrqllnX-61" value="" style="edgeStyle=orthogonalEdgeStyle;rounded=0;orthogonalLoop=1;jettySize=auto;html=1;" parent="1" source="gv7uBPnO3ANpOGrqllnX-62" edge="1">
          <mxGeometry relative="1" as="geometry">
            <mxPoint x="1280" y="610" as="targetPoint" />
            <Array as="points">
              <mxPoint x="1280" y="610" />
            </Array>
          </mxGeometry>
        </mxCell>
        <mxCell id="gv7uBPnO3ANpOGrqllnX-62" value="" style="ellipse;whiteSpace=wrap;html=1;rounded=1;fillColor=#dae8fc;strokeColor=#6c8ebf;" parent="1" vertex="1">
          <mxGeometry x="1270" y="565" width="20" height="20" as="geometry" />
        </mxCell>
        <mxCell id="gv7uBPnO3ANpOGrqllnX-63" value="&lt;div style=&quot;background-color: rgb(255, 255, 255); font-family: Consolas, &amp;quot;Courier New&amp;quot;, monospace; font-size: 14px; line-height: 19px;&quot;&gt;&lt;div style=&quot;line-height: 19px;&quot;&gt;ar_game_status&lt;/div&gt;&lt;div style=&quot;line-height: 19px;&quot;&gt;== &lt;span style=&quot;color: #0000ff;&quot;&gt;game_lose&lt;/span&gt;&lt;/div&gt;&lt;/div&gt;" style="whiteSpace=wrap;html=1;rounded=1;" parent="1" vertex="1">
          <mxGeometry x="1310" y="550" width="140" height="50" as="geometry" />
        </mxCell>
        <mxCell id="gv7uBPnO3ANpOGrqllnX-68" value="Data" style="swimlane;whiteSpace=wrap;html=1;fillColor=#fad9d5;strokeColor=#ae4132;" parent="1" vertex="1">
          <mxGeometry x="1020" y="220" width="200" height="300" as="geometry" />
        </mxCell>
        <mxCell id="gv7uBPnO3ANpOGrqllnX-69" value="&lt;div style=&quot;background-color: rgb(255, 255, 255); font-family: Consolas, &amp;quot;Courier New&amp;quot;, monospace; font-size: 14px; line-height: 19px;&quot;&gt;settingsetup.num_arrow&lt;/div&gt;" style="rounded=1;whiteSpace=wrap;html=1;" parent="gv7uBPnO3ANpOGrqllnX-68" vertex="1">
          <mxGeometry x="10" y="30" width="180" height="25" as="geometry" />
        </mxCell>
        <mxCell id="gv7uBPnO3ANpOGrqllnX-70" value="&lt;div style=&quot;background-color: rgb(255, 255, 255); font-family: Consolas, &amp;quot;Courier New&amp;quot;, monospace; font-size: 14px; line-height: 19px;&quot;&gt;&lt;div style=&quot;line-height: 19px;&quot;&gt;ar_game_score&lt;/div&gt;&lt;/div&gt;" style="rounded=1;whiteSpace=wrap;html=1;" parent="gv7uBPnO3ANpOGrqllnX-68" vertex="1">
          <mxGeometry x="10" y="60" width="180" height="25" as="geometry" />
        </mxCell>
        <mxCell id="gv7uBPnO3ANpOGrqllnX-71" value="&lt;div style=&quot;background-color: rgb(255, 255, 255); font-family: Consolas, &amp;quot;Courier New&amp;quot;, monospace; font-size: 14px; line-height: 19px;&quot;&gt;&lt;div style=&quot;line-height: 19px;&quot;&gt;struct(archery)&lt;/div&gt;&lt;/div&gt;" style="rounded=1;whiteSpace=wrap;html=1;" parent="gv7uBPnO3ANpOGrqllnX-68" vertex="1">
          <mxGeometry x="10" y="90" width="180" height="35" as="geometry" />
        </mxCell>
        <mxCell id="gv7uBPnO3ANpOGrqllnX-72" value="&lt;div style=&quot;background-color: rgb(255, 255, 255); font-family: Consolas, &amp;quot;Courier New&amp;quot;, monospace; font-size: 14px; line-height: 19px;&quot;&gt;&lt;div style=&quot;line-height: 19px;&quot;&gt;struct(arrow)&lt;/div&gt;&lt;/div&gt;" style="rounded=1;whiteSpace=wrap;html=1;" parent="gv7uBPnO3ANpOGrqllnX-68" vertex="1">
          <mxGeometry x="10" y="130" width="180" height="35" as="geometry" />
        </mxCell>
        <mxCell id="gv7uBPnO3ANpOGrqllnX-73" value="&lt;div style=&quot;background-color: rgb(255, 255, 255); font-family: Consolas, &amp;quot;Courier New&amp;quot;, monospace; font-size: 14px; line-height: 19px;&quot;&gt;&lt;div style=&quot;line-height: 19px;&quot;&gt;struct(bang)&lt;/div&gt;&lt;/div&gt;" style="rounded=1;whiteSpace=wrap;html=1;" parent="gv7uBPnO3ANpOGrqllnX-68" vertex="1">
          <mxGeometry x="10" y="170" width="180" height="35" as="geometry" />
        </mxCell>
        <mxCell id="gv7uBPnO3ANpOGrqllnX-74" value="&lt;div style=&quot;background-color: rgb(255, 255, 255); font-family: Consolas, &amp;quot;Courier New&amp;quot;, monospace; font-size: 14px; line-height: 19px;&quot;&gt;&lt;div style=&quot;line-height: 19px;&quot;&gt;struct(border)&lt;/div&gt;&lt;/div&gt;" style="rounded=1;whiteSpace=wrap;html=1;" parent="gv7uBPnO3ANpOGrqllnX-68" vertex="1">
          <mxGeometry x="10" y="210" width="180" height="35" as="geometry" />
        </mxCell>
        <mxCell id="gv7uBPnO3ANpOGrqllnX-75" value="&lt;div style=&quot;background-color: rgb(255, 255, 255); font-family: Consolas, &amp;quot;Courier New&amp;quot;, monospace; font-size: 14px; line-height: 19px;&quot;&gt;&lt;div style=&quot;line-height: 19px;&quot;&gt;struct(meteoroid)&lt;/div&gt;&lt;/div&gt;" style="rounded=1;whiteSpace=wrap;html=1;" parent="gv7uBPnO3ANpOGrqllnX-68" vertex="1">
          <mxGeometry x="10" y="250" width="180" height="35" as="geometry" />
        </mxCell>
        <mxCell id="gv7uBPnO3ANpOGrqllnX-2" value="&lt;div style=&quot;background-color: rgb(255, 255, 255); font-family: Consolas, &amp;quot;Courier New&amp;quot;, monospace; font-size: 14px; line-height: 19px;&quot;&gt;scr_archery_game_handle(&lt;span style=&quot;color: #267f99;&quot;&gt;ak_msg_t&lt;/span&gt;&lt;span style=&quot;color: #0000ff;&quot;&gt;*&lt;/span&gt; &lt;span style=&quot;color: #001080;&quot;&gt;msg&lt;/span&gt;)&lt;/div&gt;" style="rounded=1;whiteSpace=wrap;html=1;" parent="1" vertex="1">
          <mxGeometry x="650" y="260" width="310" height="35" as="geometry" />
        </mxCell>
        <mxCell id="gv7uBPnO3ANpOGrqllnX-77" value="&lt;div style=&quot;background-color: rgb(255, 255, 255); font-family: Consolas, &amp;quot;Courier New&amp;quot;, monospace; line-height: 19px;&quot;&gt;&lt;font color=&quot;#ff0080&quot; style=&quot;font-size: 20px;&quot;&gt;&lt;b&gt;Handle&lt;/b&gt;&lt;/font&gt;&lt;/div&gt;" style="rounded=1;whiteSpace=wrap;html=1;verticalAlign=top;arcSize=5;" parent="1" vertex="1">
          <mxGeometry x="340" y="160" width="240" height="215" as="geometry" />
        </mxCell>
        <mxCell id="gv7uBPnO3ANpOGrqllnX-6" value="Setup" style="rounded=1;whiteSpace=wrap;html=1;fillColor=#f8cecc;strokeColor=#b85450;fontStyle=1" parent="1" vertex="1">
          <mxGeometry x="360" y="205" width="200" height="30" as="geometry" />
        </mxCell>
        <mxCell id="gv7uBPnO3ANpOGrqllnX-7" value="Exit" style="rounded=1;whiteSpace=wrap;html=1;fontStyle=1;fillColor=#dae8fc;strokeColor=#6c8ebf;" parent="1" vertex="1">
          <mxGeometry x="360" y="330" width="200" height="30" as="geometry" />
        </mxCell>
        <mxCell id="gv7uBPnO3ANpOGrqllnX-8" value="TIme Tick" style="rounded=1;whiteSpace=wrap;html=1;fontStyle=1;fillColor=#fff2cc;strokeColor=#d6b656;" parent="1" vertex="1">
          <mxGeometry x="360" y="245" width="200" height="30" as="geometry" />
        </mxCell>
        <mxCell id="gv7uBPnO3ANpOGrqllnX-78" value="Reset" style="rounded=1;whiteSpace=wrap;html=1;fontStyle=1;fillColor=#e1d5e7;strokeColor=#9673a6;" parent="1" vertex="1">
          <mxGeometry x="360" y="290" width="200" height="30" as="geometry" />
        </mxCell>
        <mxCell id="gv7uBPnO3ANpOGrqllnX-79" value="&lt;div style=&quot;background-color: rgb(255, 255, 255); font-family: Consolas, &amp;quot;Courier New&amp;quot;, monospace; line-height: 19px;&quot;&gt;&lt;font color=&quot;#3333ff&quot; style=&quot;font-size: 20px;&quot;&gt;&lt;b&gt;Control&lt;/b&gt;&lt;/font&gt;&lt;/div&gt;" style="rounded=1;whiteSpace=wrap;html=1;verticalAlign=top;arcSize=5;" parent="1" vertex="1">
          <mxGeometry x="340" y="390" width="240" height="170" as="geometry" />
        </mxCell>
        <mxCell id="gv7uBPnO3ANpOGrqllnX-80" value="Button [Up]" style="rounded=1;whiteSpace=wrap;html=1;fillColor=#bac8d3;strokeColor=#23445d;fontStyle=1" parent="1" vertex="1">
          <mxGeometry x="360" y="435" width="200" height="30" as="geometry" />
        </mxCell>
        <mxCell id="gv7uBPnO3ANpOGrqllnX-82" value="Button [Down]" style="rounded=1;whiteSpace=wrap;html=1;fillColor=#b0e3e6;strokeColor=#0e8088;fontStyle=1" parent="1" vertex="1">
          <mxGeometry x="360" y="475" width="200" height="30" as="geometry" />
        </mxCell>
        <mxCell id="gv7uBPnO3ANpOGrqllnX-83" value="Button [Mode]" style="rounded=1;whiteSpace=wrap;html=1;fillColor=#d5e8d4;gradientColor=#97d077;strokeColor=#82b366;fontStyle=1" parent="1" vertex="1">
          <mxGeometry x="360" y="520" width="200" height="30" as="geometry" />
        </mxCell>
        <mxCell id="gv7uBPnO3ANpOGrqllnX-85" value="" style="edgeStyle=orthogonalEdgeStyle;orthogonalLoop=1;jettySize=auto;html=1;entryX=0;entryY=0.5;entryDx=0;entryDy=0;strokeWidth=2;shadow=0;exitX=1;exitY=0.5;exitDx=0;exitDy=0;rounded=1;" parent="1" source="gv7uBPnO3ANpOGrqllnX-8" target="gv7uBPnO3ANpOGrqllnX-12" edge="1">
          <mxGeometry relative="1" as="geometry">
            <Array as="points">
              <mxPoint x="610" y="260" />
              <mxPoint x="610" y="328" />
            </Array>
          </mxGeometry>
        </mxCell>
        <mxCell id="gv7uBPnO3ANpOGrqllnX-86" value="" style="edgeStyle=orthogonalEdgeStyle;orthogonalLoop=1;jettySize=auto;html=1;entryX=0;entryY=0.5;entryDx=0;entryDy=0;strokeWidth=2;shadow=0;exitX=1;exitY=0.5;exitDx=0;exitDy=0;rounded=1;" parent="1" source="gv7uBPnO3ANpOGrqllnX-8" target="gv7uBPnO3ANpOGrqllnX-14" edge="1">
          <mxGeometry relative="1" as="geometry">
            <mxPoint x="560" y="220" as="sourcePoint" />
            <mxPoint x="650" y="330" as="targetPoint" />
            <Array as="points">
              <mxPoint x="610" y="260" />
              <mxPoint x="610" y="378" />
            </Array>
          </mxGeometry>
        </mxCell>
        <mxCell id="gv7uBPnO3ANpOGrqllnX-87" value="" style="edgeStyle=orthogonalEdgeStyle;orthogonalLoop=1;jettySize=auto;html=1;entryX=0;entryY=0.5;entryDx=0;entryDy=0;strokeWidth=2;shadow=0;exitX=1;exitY=0.5;exitDx=0;exitDy=0;rounded=1;" parent="1" source="gv7uBPnO3ANpOGrqllnX-8" target="gv7uBPnO3ANpOGrqllnX-13" edge="1">
          <mxGeometry relative="1" as="geometry">
            <mxPoint x="580" y="240" as="sourcePoint" />
            <mxPoint x="670" y="348" as="targetPoint" />
            <Array as="points">
              <mxPoint x="610" y="260" />
              <mxPoint x="610" y="428" />
            </Array>
          </mxGeometry>
        </mxCell>
        <mxCell id="gv7uBPnO3ANpOGrqllnX-88" value="" style="edgeStyle=orthogonalEdgeStyle;orthogonalLoop=1;jettySize=auto;html=1;entryX=0;entryY=0.5;entryDx=0;entryDy=0;strokeWidth=2;shadow=0;exitX=1;exitY=0.5;exitDx=0;exitDy=0;rounded=1;" parent="1" source="gv7uBPnO3ANpOGrqllnX-8" target="gv7uBPnO3ANpOGrqllnX-15" edge="1">
          <mxGeometry relative="1" as="geometry">
            <mxPoint x="560" y="220" as="sourcePoint" />
            <mxPoint x="680" y="358" as="targetPoint" />
            <Array as="points">
              <mxPoint x="610" y="260" />
              <mxPoint x="610" y="478" />
            </Array>
          </mxGeometry>
        </mxCell>
        <mxCell id="gv7uBPnO3ANpOGrqllnX-89" value="" style="edgeStyle=orthogonalEdgeStyle;orthogonalLoop=1;jettySize=auto;html=1;entryX=0;entryY=0.5;entryDx=0;entryDy=0;strokeWidth=2;shadow=0;exitX=1;exitY=0.5;exitDx=0;exitDy=0;rounded=1;" parent="1" source="gv7uBPnO3ANpOGrqllnX-8" target="gv7uBPnO3ANpOGrqllnX-17" edge="1">
          <mxGeometry relative="1" as="geometry">
            <mxPoint x="600" y="260" as="sourcePoint" />
            <mxPoint x="690" y="368" as="targetPoint" />
            <Array as="points">
              <mxPoint x="610" y="260" />
              <mxPoint x="610" y="528" />
            </Array>
          </mxGeometry>
        </mxCell>
        <mxCell id="gv7uBPnO3ANpOGrqllnX-90" value="" style="edgeStyle=orthogonalEdgeStyle;orthogonalLoop=1;jettySize=auto;html=1;entryX=0;entryY=0.5;entryDx=0;entryDy=0;strokeWidth=2;curved=1;shadow=0;exitX=1;exitY=0.5;exitDx=0;exitDy=0;" parent="1" source="gv7uBPnO3ANpOGrqllnX-12" target="gv7uBPnO3ANpOGrqllnX-71" edge="1">
          <mxGeometry relative="1" as="geometry">
            <mxPoint x="920" y="223.5" as="sourcePoint" />
            <mxPoint x="1010" y="531.5" as="targetPoint" />
          </mxGeometry>
        </mxCell>
        <mxCell id="gv7uBPnO3ANpOGrqllnX-91" value="" style="edgeStyle=orthogonalEdgeStyle;orthogonalLoop=1;jettySize=auto;html=1;entryX=0;entryY=0.5;entryDx=0;entryDy=0;strokeWidth=2;shadow=0;exitX=1;exitY=0.5;exitDx=0;exitDy=0;rounded=1;" parent="1" source="gv7uBPnO3ANpOGrqllnX-14" target="gv7uBPnO3ANpOGrqllnX-72" edge="1">
          <mxGeometry relative="1" as="geometry">
            <mxPoint x="929.48" y="216" as="sourcePoint" />
            <mxPoint x="1019.48" y="524" as="targetPoint" />
            <Array as="points">
              <mxPoint x="990" y="378" />
              <mxPoint x="990" y="368" />
            </Array>
          </mxGeometry>
        </mxCell>
        <mxCell id="gv7uBPnO3ANpOGrqllnX-92" value="" style="edgeStyle=orthogonalEdgeStyle;orthogonalLoop=1;jettySize=auto;html=1;entryX=0;entryY=0.5;entryDx=0;entryDy=0;strokeWidth=2;shadow=0;exitX=1;exitY=0.5;exitDx=0;exitDy=0;rounded=1;" parent="1" source="gv7uBPnO3ANpOGrqllnX-17" target="gv7uBPnO3ANpOGrqllnX-75" edge="1">
          <mxGeometry relative="1" as="geometry">
            <mxPoint x="960" y="421" as="sourcePoint" />
            <mxPoint x="1050" y="729" as="targetPoint" />
            <Array as="points">
              <mxPoint x="1010" y="528" />
              <mxPoint x="1010" y="488" />
            </Array>
          </mxGeometry>
        </mxCell>
        <mxCell id="gv7uBPnO3ANpOGrqllnX-93" value="" style="edgeStyle=orthogonalEdgeStyle;orthogonalLoop=1;jettySize=auto;html=1;entryX=0;entryY=0.5;entryDx=0;entryDy=0;strokeWidth=2;shadow=0;exitX=1;exitY=0.5;exitDx=0;exitDy=0;rounded=1;" parent="1" source="gv7uBPnO3ANpOGrqllnX-17" target="gv7uBPnO3ANpOGrqllnX-72" edge="1">
          <mxGeometry relative="1" as="geometry">
            <mxPoint x="970" y="538" as="sourcePoint" />
            <mxPoint x="1040" y="498" as="targetPoint" />
            <Array as="points">
              <mxPoint x="1010" y="528" />
              <mxPoint x="1010" y="368" />
            </Array>
          </mxGeometry>
        </mxCell>
        <mxCell id="gv7uBPnO3ANpOGrqllnX-94" value="" style="edgeStyle=orthogonalEdgeStyle;orthogonalLoop=1;jettySize=auto;html=1;entryX=0;entryY=0.5;entryDx=0;entryDy=0;strokeWidth=2;shadow=0;exitX=1;exitY=0.5;exitDx=0;exitDy=0;rounded=1;" parent="1" source="gv7uBPnO3ANpOGrqllnX-15" target="gv7uBPnO3ANpOGrqllnX-70" edge="1">
          <mxGeometry relative="1" as="geometry">
            <mxPoint x="980" y="548" as="sourcePoint" />
            <mxPoint x="1050" y="508" as="targetPoint" />
            <Array as="points">
              <mxPoint x="1000" y="478" />
              <mxPoint x="1000" y="293" />
            </Array>
          </mxGeometry>
        </mxCell>
        <mxCell id="gv7uBPnO3ANpOGrqllnX-95" value="" style="edgeStyle=orthogonalEdgeStyle;orthogonalLoop=1;jettySize=auto;html=1;entryX=0;entryY=0.5;entryDx=0;entryDy=0;strokeWidth=2;shadow=0;exitX=1;exitY=0.5;exitDx=0;exitDy=0;rounded=1;" parent="1" source="gv7uBPnO3ANpOGrqllnX-15" target="gv7uBPnO3ANpOGrqllnX-74" edge="1">
          <mxGeometry relative="1" as="geometry">
            <mxPoint x="990" y="558" as="sourcePoint" />
            <mxPoint x="1060" y="518" as="targetPoint" />
            <Array as="points">
              <mxPoint x="1000" y="478" />
              <mxPoint x="1000" y="448" />
            </Array>
          </mxGeometry>
        </mxCell>
        <mxCell id="gv7uBPnO3ANpOGrqllnX-97" value="" style="edgeStyle=orthogonalEdgeStyle;orthogonalLoop=1;jettySize=auto;html=1;entryX=0;entryY=0.5;entryDx=0;entryDy=0;strokeWidth=2;shadow=0;exitX=1;exitY=0.5;exitDx=0;exitDy=0;rounded=1;" parent="1" source="gv7uBPnO3ANpOGrqllnX-14" target="gv7uBPnO3ANpOGrqllnX-69" edge="1">
          <mxGeometry relative="1" as="geometry">
            <mxPoint x="1010" y="578" as="sourcePoint" />
            <mxPoint x="1080" y="538" as="targetPoint" />
            <Array as="points">
              <mxPoint x="990" y="378" />
              <mxPoint x="990" y="263" />
            </Array>
          </mxGeometry>
        </mxCell>
        <mxCell id="gv7uBPnO3ANpOGrqllnX-98" value="" style="edgeStyle=orthogonalEdgeStyle;orthogonalLoop=1;jettySize=auto;html=1;entryX=0.5;entryY=0;entryDx=0;entryDy=0;strokeWidth=2;shadow=0;exitX=1;exitY=0.5;exitDx=0;exitDy=0;rounded=1;" parent="1" source="gv7uBPnO3ANpOGrqllnX-6" target="gv7uBPnO3ANpOGrqllnX-3" edge="1">
          <mxGeometry relative="1" as="geometry">
            <mxPoint x="589" y="240" as="sourcePoint" />
            <mxPoint x="659" y="200" as="targetPoint" />
          </mxGeometry>
        </mxCell>
        <mxCell id="gv7uBPnO3ANpOGrqllnX-99" value="" style="edgeStyle=orthogonalEdgeStyle;orthogonalLoop=1;jettySize=auto;html=1;entryX=0.5;entryY=0;entryDx=0;entryDy=0;strokeWidth=2;shadow=0;exitX=1;exitY=0.5;exitDx=0;exitDy=0;rounded=1;" parent="1" source="gv7uBPnO3ANpOGrqllnX-78" target="gv7uBPnO3ANpOGrqllnX-3" edge="1">
          <mxGeometry relative="1" as="geometry">
            <mxPoint x="569.48" y="250" as="sourcePoint" />
            <mxPoint x="639.48" y="210" as="targetPoint" />
            <Array as="points">
              <mxPoint x="590" y="305" />
              <mxPoint x="590" y="220" />
              <mxPoint x="805" y="220" />
            </Array>
          </mxGeometry>
        </mxCell>
        <mxCell id="gv7uBPnO3ANpOGrqllnX-100" value="" style="edgeStyle=orthogonalEdgeStyle;orthogonalLoop=1;jettySize=auto;html=1;entryX=0.5;entryY=0;entryDx=0;entryDy=0;strokeWidth=2;shadow=0;exitX=1;exitY=0.5;exitDx=0;exitDy=0;rounded=1;" parent="1" source="gv7uBPnO3ANpOGrqllnX-7" target="gv7uBPnO3ANpOGrqllnX-3" edge="1">
          <mxGeometry relative="1" as="geometry">
            <mxPoint x="570" y="345" as="sourcePoint" />
            <mxPoint x="630" y="304.48" as="targetPoint" />
            <Array as="points">
              <mxPoint x="590" y="345" />
              <mxPoint x="590" y="220" />
              <mxPoint x="805" y="220" />
            </Array>
          </mxGeometry>
        </mxCell>
        <mxCell id="gv7uBPnO3ANpOGrqllnX-101" value="" style="edgeStyle=orthogonalEdgeStyle;orthogonalLoop=1;jettySize=auto;html=1;entryX=0;entryY=0.5;entryDx=0;entryDy=0;strokeWidth=2;shadow=0;exitX=1;exitY=0.5;exitDx=0;exitDy=0;rounded=1;" parent="1" source="gv7uBPnO3ANpOGrqllnX-80" target="gv7uBPnO3ANpOGrqllnX-12" edge="1">
          <mxGeometry relative="1" as="geometry">
            <mxPoint x="550" y="589" as="sourcePoint" />
            <mxPoint x="620" y="549" as="targetPoint" />
            <Array as="points">
              <mxPoint x="600" y="450" />
              <mxPoint x="600" y="328" />
            </Array>
          </mxGeometry>
        </mxCell>
        <mxCell id="gv7uBPnO3ANpOGrqllnX-102" value="" style="edgeStyle=orthogonalEdgeStyle;orthogonalLoop=1;jettySize=auto;html=1;entryX=0;entryY=0.5;entryDx=0;entryDy=0;strokeWidth=2;shadow=0;exitX=1;exitY=0.5;exitDx=0;exitDy=0;rounded=1;" parent="1" source="gv7uBPnO3ANpOGrqllnX-82" target="gv7uBPnO3ANpOGrqllnX-12" edge="1">
          <mxGeometry relative="1" as="geometry">
            <mxPoint x="569.48" y="549.48" as="sourcePoint" />
            <mxPoint x="639.48" y="509.48" as="targetPoint" />
            <Array as="points">
              <mxPoint x="600" y="490" />
              <mxPoint x="600" y="328" />
            </Array>
          </mxGeometry>
        </mxCell>
        <mxCell id="gv7uBPnO3ANpOGrqllnX-103" value="" style="edgeStyle=orthogonalEdgeStyle;orthogonalLoop=1;jettySize=auto;html=1;entryX=0;entryY=0.5;entryDx=0;entryDy=0;strokeWidth=2;shadow=0;exitX=1;exitY=0.5;exitDx=0;exitDy=0;rounded=1;" parent="1" source="gv7uBPnO3ANpOGrqllnX-83" target="gv7uBPnO3ANpOGrqllnX-14" edge="1">
          <mxGeometry relative="1" as="geometry">
            <mxPoint x="550" y="622.24" as="sourcePoint" />
            <mxPoint x="620" y="582.24" as="targetPoint" />
            <Array as="points">
              <mxPoint x="620" y="535" />
              <mxPoint x="620" y="378" />
            </Array>
          </mxGeometry>
        </mxCell>
        <mxCell id="gv7uBPnO3ANpOGrqllnX-104" value="" style="edgeStyle=orthogonalEdgeStyle;orthogonalLoop=1;jettySize=auto;html=1;entryX=0;entryY=0.5;entryDx=0;entryDy=0;strokeWidth=2;shadow=0;exitX=1;exitY=0.5;exitDx=0;exitDy=0;rounded=1;" parent="1" source="gv7uBPnO3ANpOGrqllnX-69" target="gv7uBPnO3ANpOGrqllnX-28" edge="1">
          <mxGeometry relative="1" as="geometry">
            <mxPoint x="1140" y="184.48000000000002" as="sourcePoint" />
            <mxPoint x="1210" y="144.48000000000002" as="targetPoint" />
            <Array as="points">
              <mxPoint x="1230" y="262" />
              <mxPoint x="1230" y="228" />
            </Array>
          </mxGeometry>
        </mxCell>
        <mxCell id="gv7uBPnO3ANpOGrqllnX-105" value="" style="edgeStyle=orthogonalEdgeStyle;orthogonalLoop=1;jettySize=auto;html=1;entryX=0;entryY=0.5;entryDx=0;entryDy=0;strokeWidth=2;shadow=0;exitX=1;exitY=0.5;exitDx=0;exitDy=0;rounded=1;" parent="1" source="gv7uBPnO3ANpOGrqllnX-70" target="gv7uBPnO3ANpOGrqllnX-28" edge="1">
          <mxGeometry relative="1" as="geometry">
            <mxPoint x="1090" y="658" as="sourcePoint" />
            <mxPoint x="1160" y="618" as="targetPoint" />
            <Array as="points">
              <mxPoint x="1230" y="292" />
              <mxPoint x="1230" y="228" />
            </Array>
          </mxGeometry>
        </mxCell>
        <mxCell id="gv7uBPnO3ANpOGrqllnX-106" value="" style="edgeStyle=orthogonalEdgeStyle;orthogonalLoop=1;jettySize=auto;html=1;entryX=0;entryY=0.5;entryDx=0;entryDy=0;strokeWidth=2;shadow=0;exitX=1;exitY=0.5;exitDx=0;exitDy=0;rounded=1;" parent="1" source="gv7uBPnO3ANpOGrqllnX-71" target="gv7uBPnO3ANpOGrqllnX-24" edge="1">
          <mxGeometry relative="1" as="geometry">
            <mxPoint x="1160" y="564.48" as="sourcePoint" />
            <mxPoint x="1230" y="524.48" as="targetPoint" />
            <Array as="points">
              <mxPoint x="1240" y="328" />
              <mxPoint x="1240" y="278" />
            </Array>
          </mxGeometry>
        </mxCell>
        <mxCell id="gv7uBPnO3ANpOGrqllnX-107" value="" style="edgeStyle=orthogonalEdgeStyle;orthogonalLoop=1;jettySize=auto;html=1;entryX=0;entryY=0.5;entryDx=0;entryDy=0;strokeWidth=2;shadow=0;exitX=1;exitY=0.5;exitDx=0;exitDy=0;rounded=1;" parent="1" source="gv7uBPnO3ANpOGrqllnX-72" target="gv7uBPnO3ANpOGrqllnX-26" edge="1">
          <mxGeometry relative="1" as="geometry">
            <mxPoint x="1110" y="678" as="sourcePoint" />
            <mxPoint x="1180" y="638" as="targetPoint" />
          </mxGeometry>
        </mxCell>
        <mxCell id="gv7uBPnO3ANpOGrqllnX-108" value="" style="edgeStyle=orthogonalEdgeStyle;orthogonalLoop=1;jettySize=auto;html=1;entryX=0;entryY=0.5;entryDx=0;entryDy=0;strokeWidth=2;shadow=0;exitX=1;exitY=0.5;exitDx=0;exitDy=0;rounded=1;" parent="1" source="gv7uBPnO3ANpOGrqllnX-73" target="gv7uBPnO3ANpOGrqllnX-25" edge="1">
          <mxGeometry relative="1" as="geometry">
            <mxPoint x="1120" y="688" as="sourcePoint" />
            <mxPoint x="1190" y="648" as="targetPoint" />
          </mxGeometry>
        </mxCell>
        <mxCell id="gv7uBPnO3ANpOGrqllnX-109" value="" style="edgeStyle=orthogonalEdgeStyle;orthogonalLoop=1;jettySize=auto;html=1;strokeWidth=2;shadow=0;exitX=1;exitY=0.5;exitDx=0;exitDy=0;rounded=1;" parent="1" source="gv7uBPnO3ANpOGrqllnX-74" target="gv7uBPnO3ANpOGrqllnX-27" edge="1">
          <mxGeometry relative="1" as="geometry">
            <mxPoint x="1130" y="698" as="sourcePoint" />
            <mxPoint x="1200" y="658" as="targetPoint" />
          </mxGeometry>
        </mxCell>
        <mxCell id="gv7uBPnO3ANpOGrqllnX-110" value="" style="edgeStyle=orthogonalEdgeStyle;orthogonalLoop=1;jettySize=auto;html=1;entryX=0;entryY=0.5;entryDx=0;entryDy=0;strokeWidth=2;shadow=0;exitX=1;exitY=0.5;exitDx=0;exitDy=0;rounded=1;" parent="1" source="gv7uBPnO3ANpOGrqllnX-75" target="gv7uBPnO3ANpOGrqllnX-29" edge="1">
          <mxGeometry relative="1" as="geometry">
            <mxPoint x="1140" y="708" as="sourcePoint" />
            <mxPoint x="1210" y="668" as="targetPoint" />
          </mxGeometry>
        </mxCell>
        <mxCell id="gv7uBPnO3ANpOGrqllnX-111" value="&lt;b style=&quot;border-color: var(--border-color); font-family: Consolas, &amp;quot;Courier New&amp;quot;, monospace; font-size: 14px;&quot;&gt;Timer --&amp;gt;&amp;nbsp;AR_GAME_TIME_TICK&amp;nbsp;&lt;/b&gt;" style="rounded=1;whiteSpace=wrap;html=1;fontStyle=1;fillColor=#fff2cc;strokeColor=#d6b656;" parent="1" vertex="1">
          <mxGeometry x="650" y="160" width="310" height="40" as="geometry" />
        </mxCell>
        <mxCell id="gv7uBPnO3ANpOGrqllnX-96" value="" style="edgeStyle=orthogonalEdgeStyle;orthogonalLoop=1;jettySize=auto;html=1;entryX=0;entryY=0.5;entryDx=0;entryDy=0;strokeWidth=2;shadow=0;exitX=1;exitY=0.5;exitDx=0;exitDy=0;rounded=1;" parent="1" source="gv7uBPnO3ANpOGrqllnX-13" target="gv7uBPnO3ANpOGrqllnX-73" edge="1">
          <mxGeometry relative="1" as="geometry">
            <mxPoint x="1000" y="568" as="sourcePoint" />
            <mxPoint x="1070" y="528" as="targetPoint" />
            <Array as="points">
              <mxPoint x="990" y="428" />
              <mxPoint x="990" y="408" />
            </Array>
          </mxGeometry>
        </mxCell>
        <mxCell id="gv7uBPnO3ANpOGrqllnX-112" value="" style="edgeStyle=orthogonalEdgeStyle;orthogonalLoop=1;jettySize=auto;html=1;entryX=1;entryY=0.5;entryDx=0;entryDy=0;strokeWidth=2;shadow=0;exitX=1;exitY=0.5;exitDx=0;exitDy=0;rounded=1;" parent="1" source="gv7uBPnO3ANpOGrqllnX-2" target="gv7uBPnO3ANpOGrqllnX-111" edge="1">
          <mxGeometry relative="1" as="geometry">
            <mxPoint x="910" y="249.97" as="sourcePoint" />
            <mxPoint x="1155" y="194.97" as="targetPoint" />
            <Array as="points">
              <mxPoint x="980" y="278" />
              <mxPoint x="980" y="180" />
            </Array>
          </mxGeometry>
        </mxCell>
        <mxCell id="gv7uBPnO3ANpOGrqllnX-114" value="" style="edgeStyle=orthogonalEdgeStyle;orthogonalLoop=1;jettySize=auto;html=1;entryX=0;entryY=0.5;entryDx=0;entryDy=0;strokeWidth=2;shadow=0;exitX=0;exitY=0.5;exitDx=0;exitDy=0;rounded=1;" parent="1" source="gv7uBPnO3ANpOGrqllnX-111" target="gv7uBPnO3ANpOGrqllnX-8" edge="1">
          <mxGeometry relative="1" as="geometry">
            <mxPoint x="500" y="198" as="sourcePoint" />
            <mxPoint x="500" y="100" as="targetPoint" />
            <Array as="points">
              <mxPoint x="620" y="180" />
              <mxPoint x="620" y="150" />
              <mxPoint x="330" y="150" />
              <mxPoint x="330" y="260" />
            </Array>
          </mxGeometry>
        </mxCell>
        <mxCell id="gv7uBPnO3ANpOGrqllnX-115" value="" style="edgeStyle=orthogonalEdgeStyle;orthogonalLoop=1;jettySize=auto;html=1;strokeWidth=2;shadow=0;exitX=1;exitY=0.5;exitDx=0;exitDy=0;rounded=1;entryX=0;entryY=0.5;entryDx=0;entryDy=0;" parent="1" source="gv7uBPnO3ANpOGrqllnX-15" target="gv7uBPnO3ANpOGrqllnX-78" edge="1">
          <mxGeometry relative="1" as="geometry">
            <mxPoint x="970" y="488" as="sourcePoint" />
            <mxPoint x="330" y="570" as="targetPoint" />
            <Array as="points">
              <mxPoint x="980" y="478" />
              <mxPoint x="980" y="570" />
              <mxPoint x="330" y="570" />
              <mxPoint x="330" y="305" />
            </Array>
          </mxGeometry>
        </mxCell>
        <mxCell id="gv7uBPnO3ANpOGrqllnX-116" value="&lt;b&gt;(1)&lt;/b&gt;" style="text;html=1;strokeColor=none;fillColor=none;align=center;verticalAlign=middle;whiteSpace=wrap;rounded=0;" parent="1" vertex="1">
          <mxGeometry x="390" y="160" width="30" height="30" as="geometry" />
        </mxCell>
        <mxCell id="gv7uBPnO3ANpOGrqllnX-117" value="&lt;b&gt;(2)&lt;/b&gt;" style="text;html=1;strokeColor=none;fillColor=none;align=center;verticalAlign=middle;whiteSpace=wrap;rounded=0;" parent="1" vertex="1">
          <mxGeometry x="390" y="395" width="30" height="30" as="geometry" />
        </mxCell>
        <mxCell id="gv7uBPnO3ANpOGrqllnX-118" value="&lt;b&gt;(3)&lt;/b&gt;" style="text;html=1;strokeColor=none;fillColor=none;align=center;verticalAlign=middle;whiteSpace=wrap;rounded=0;" parent="1" vertex="1">
          <mxGeometry x="640" y="220" width="30" height="30" as="geometry" />
        </mxCell>
        <mxCell id="gv7uBPnO3ANpOGrqllnX-119" value="&lt;b&gt;(4)&lt;/b&gt;" style="text;html=1;strokeColor=none;fillColor=none;align=center;verticalAlign=middle;whiteSpace=wrap;rounded=0;" parent="1" vertex="1">
          <mxGeometry x="640" y="130" width="30" height="30" as="geometry" />
        </mxCell>
        <mxCell id="gv7uBPnO3ANpOGrqllnX-120" value="&lt;b&gt;(5)&lt;/b&gt;" style="text;html=1;strokeColor=none;fillColor=none;align=center;verticalAlign=middle;whiteSpace=wrap;rounded=0;" parent="1" vertex="1">
          <mxGeometry x="1020" y="185" width="30" height="30" as="geometry" />
        </mxCell>
        <mxCell id="gv7uBPnO3ANpOGrqllnX-121" value="&lt;b&gt;(6)&lt;/b&gt;" style="text;html=1;strokeColor=none;fillColor=none;align=center;verticalAlign=middle;whiteSpace=wrap;rounded=0;" parent="1" vertex="1">
          <mxGeometry x="1220" y="130" width="30" height="30" as="geometry" />
        </mxCell>
        <mxCell id="gv7uBPnO3ANpOGrqllnX-122" value="&lt;b&gt;(7)&lt;/b&gt;" style="text;html=1;strokeColor=none;fillColor=none;align=center;verticalAlign=middle;whiteSpace=wrap;rounded=0;" parent="1" vertex="1">
          <mxGeometry x="1230" y="535" width="30" height="30" as="geometry" />
        </mxCell>
        <mxCell id="gv7uBPnO3ANpOGrqllnX-123" value="view_scr_archery_game()" style="rounded=1;whiteSpace=wrap;html=1;fontStyle=1;fillColor=#d5e8d4;strokeColor=#82b366;gradientColor=#97d077;" parent="1" vertex="1">
          <mxGeometry x="1260" y="80" width="200" height="40" as="geometry" />
        </mxCell>
        <mxCell id="ooi9i6BJcI3jP5Y8vTb1-1" value="" style="edgeStyle=orthogonalEdgeStyle;orthogonalLoop=1;jettySize=auto;html=1;strokeWidth=2;shadow=0;exitX=1;exitY=0.5;exitDx=0;exitDy=0;rounded=1;entryX=0;entryY=0.5;entryDx=0;entryDy=0;" edge="1" parent="1" source="gv7uBPnO3ANpOGrqllnX-8" target="ooi9i6BJcI3jP5Y8vTb1-2">
          <mxGeometry relative="1" as="geometry">
            <Array as="points">
              <mxPoint x="610" y="260" />
              <mxPoint x="610" y="210" />
              <mxPoint x="990" y="210" />
              <mxPoint x="990" y="100" />
            </Array>
            <mxPoint x="570" y="270" as="sourcePoint" />
            <mxPoint x="1010" y="100" as="targetPoint" />
          </mxGeometry>
        </mxCell>
        <mxCell id="ooi9i6BJcI3jP5Y8vTb1-3" value="" style="edgeStyle=orthogonalEdgeStyle;rounded=0;orthogonalLoop=1;jettySize=auto;html=1;strokeWidth=2;" edge="1" parent="1" source="ooi9i6BJcI3jP5Y8vTb1-2" target="gv7uBPnO3ANpOGrqllnX-123">
          <mxGeometry relative="1" as="geometry" />
        </mxCell>
        <mxCell id="ooi9i6BJcI3jP5Y8vTb1-2" value="task_display(ak_msg_t* msg)" style="rounded=1;whiteSpace=wrap;html=1;fontStyle=1;fillColor=#cdeb8b;strokeColor=#36393d;" vertex="1" parent="1">
          <mxGeometry x="1020" y="80" width="180" height="40" as="geometry" />
        </mxCell>
      </root>
    </mxGraphModel>
  </diagram>
</mxfile>
